<?xml version="1.0" encoding="UTF-8" standalone="no"?>
<svg width="16px" height="16px" viewBox="0 0 16 16" version="1.1" xmlns="http://www.w3.org/2000/svg" xmlns:xlink="http://www.w3.org/1999/xlink">
    <!-- Generator: Sketch 40 (33762) - http://www.bohemiancoding.com/sketch -->
    <title>Shape</title>
    <desc>Created with Sketch.</desc>
    <defs></defs>
    <g id="Page-1" stroke="none" stroke-width="1" fill="none" fill-rule="evenodd">
        <g id="Desktop-HD" transform="translate(-206.000000, -842.000000)" fill="#FFFFFF">
            <g id="Social" transform="translate(76.000000, 842.000000)">
                <path d="M138,0 C133.6,0 130,3.6 130,8 C130,11.5333333 132.266667,14.5333333 135.466667,15.6 C135.866667,15.6666667 136,15.4 136,15.2 L136,13.8666667 C133.8,14.3333333 133.333333,12.8 133.333333,12.8 C133,11.8666667 132.466667,11.6 132.466667,11.6 C131.666667,11.1333333 132.466667,11.1333333 132.466667,11.1333333 C133.266667,11.2 133.666667,11.9333333 133.666667,11.9333333 C134.4,13.1333333 135.533333,12.8 136,12.6 C136.066667,12.0666667 136.266667,11.7333333 136.533333,11.5333333 C134.733333,11.3333333 132.866667,10.6666667 132.866667,7.6 C132.866667,6.73333333 133.2,6 133.666667,5.46666667 C133.666667,5.2 133.333333,4.4 133.8,3.33333333 C133.8,3.33333333 134.466667,3.13333333 136,4.13333333 C136.666667,3.93333333 137.333333,3.86666667 138,3.86666667 C138.666667,3.86666667 139.333333,3.93333333 140,4.13333333 C141.533333,3.06666667 142.2,3.33333333 142.2,3.33333333 C142.666667,4.46666667 142.333333,5.26666667 142.266667,5.46666667 C142.8,6 143.066667,6.73333333 143.066667,7.6 C143.066667,10.6666667 141.2,11.3333333 139.4,11.5333333 C139.666667,11.8 139.933333,12.2666667 139.933333,13 L139.933333,15.2 C139.933333,15.4 140.066667,15.6666667 140.466667,15.6 C143.666667,14.5333333 145.933333,11.5333333 145.933333,8 C146,3.6 142.4,0 138,0 L138,0 Z" id="Shape"></path>
            </g>
        </g>
    </g>
</svg>