<?xml version="1.0" encoding="UTF-8" standalone="no"?>
<svg width="16px" height="16px" viewBox="0 0 16 16" version="1.1" xmlns="http://www.w3.org/2000/svg" xmlns:xlink="http://www.w3.org/1999/xlink">
    <!-- Generator: Sketch 40 (33762) - http://www.bohemiancoding.com/sketch -->
    <title>Shape</title>
    <desc>Created with Sketch.</desc>
    <defs></defs>
    <g id="Page-1" stroke="none" stroke-width="1" fill="none" fill-rule="evenodd">
        <g id="Desktop-HD" transform="translate(-76.000000, -842.000000)" fill="#FFFFFF">
            <g id="Social" transform="translate(76.000000, 842.000000)">
                <path d="M15.3333333,0 L0.666666667,0 C0.266666667,0 0,0.266666667 0,0.666666667 L0,15.3333333 C0,15.7333333 0.266666667,16 0.666666667,16 L15.3333333,16 C15.7333333,16 16,15.7333333 16,15.3333333 L16,0.666666667 C16,0.266666667 15.7333333,0 15.3333333,0 L15.3333333,0 Z M4.73333333,13.6666667 L2.4,13.6666667 L2.4,6 L4.8,6 L4.8,13.6666667 L4.73333333,13.6666667 Z M3.53333333,4.93333333 C2.8,4.93333333 2.13333333,4.33333333 2.13333333,3.53333333 C2.13333333,2.8 2.73333333,2.13333333 3.53333333,2.13333333 C4.26666667,2.13333333 4.93333333,2.73333333 4.93333333,3.53333333 C4.93333333,4.33333333 4.33333333,4.93333333 3.53333333,4.93333333 L3.53333333,4.93333333 Z M13.6666667,13.6666667 L11.2666667,13.6666667 L11.2666667,9.93333333 C11.2666667,9.06666667 11.2666667,7.93333333 10.0666667,7.93333333 C8.8,7.93333333 8.66666667,8.86666667 8.66666667,9.86666667 L8.66666667,13.6666667 L6.26666667,13.6666667 L6.26666667,6 L8.53333333,6 L8.53333333,7.06666667 L8.53333333,7.06666667 C8.86666667,6.46666667 9.6,5.86666667 10.8,5.86666667 C13.2,5.86666667 13.6666667,7.46666667 13.6666667,9.53333333 L13.6666667,13.6666667 L13.6666667,13.6666667 Z" id="Shape"></path>
            </g>
        </g>
    </g>
</svg>