<?xml version="1.0" encoding="UTF-8" standalone="no"?>
<svg width="16px" height="13px" viewBox="0 0 16 13" version="1.1" xmlns="http://www.w3.org/2000/svg" xmlns:xlink="http://www.w3.org/1999/xlink">
    <!-- Generator: Sketch 40 (33762) - http://www.bohemiancoding.com/sketch -->
    <title>Shape</title>
    <desc>Created with Sketch.</desc>
    <defs></defs>
    <g id="Page-1" stroke="none" stroke-width="1" fill="none" fill-rule="evenodd">
        <g id="Desktop-HD" transform="translate(-119.000000, -844.000000)" fill="#FFFFFF">
            <g id="Social" transform="translate(76.000000, 842.000000)">
                <path d="M59,3.53333333 C58.4,3.8 57.8,4 57.1333333,4.06666667 C57.8,3.66666667 58.3333333,3 58.6,2.26666667 C57.9333333,2.66666667 57.2666667,2.93333333 56.5333333,3.06666667 C55.9333333,2.4 55.0666667,2 54.1333333,2 C52.3333333,2 50.8666667,3.46666667 50.8666667,5.26666667 C50.8666667,5.53333333 50.8666667,5.8 50.9333333,6 C48.1333333,5.86666667 45.7333333,4.53333333 44.1333333,2.53333333 C43.8,3.06666667 43.6666667,3.6 43.6666667,4.2 C43.6666667,5.33333333 44.2666667,6.33333333 45.1333333,6.93333333 C44.6,6.93333333 44.0666667,6.8 43.6666667,6.53333333 C43.6666667,6.53333333 43.6666667,6.53333333 43.6666667,6.6 C43.6666667,8.2 44.8,9.53333333 46.2666667,9.8 C46,9.86666667 45.7333333,9.93333333 45.4,9.93333333 C45.2,9.93333333 45,9.93333333 44.8,9.86666667 C45.2,11.2 46.4,12.1333333 47.8666667,12.1333333 C46.7333333,13 45.3333333,13.5333333 43.8,13.5333333 C43.5333333,13.5333333 43.2666667,13.5333333 43,13.4666667 C44.4666667,14.4 46.2,14.9333333 48,14.9333333 C54.0666667,14.9333333 57.3333333,9.93333333 57.3333333,5.6 L57.3333333,5.2 C58,4.73333333 58.5333333,4.13333333 59,3.53333333 L59,3.53333333 Z" id="Shape"></path>
            </g>
        </g>
    </g>
</svg>